<svg width="248" height="248" viewBox="0 0 248 248" xmlns="http://www.w3.org/2000/svg">
  <g transform="translate(0, 0)">
    <path d="m211.064404,73.44336l-34.8789,0c-1.03516,0 -2.01954,0.85157 -2.1836,1.88282l-15.41797,97.34765c-0.16406,1.03125 0.55078,1.88281 1.58594,1.88281l34.87891,0c1.03515,0 2.01953,-0.85156 2.18359,-1.88281l15.41797,-97.34765c0.16406,-1.03125 -0.55469,-1.88282 -1.58594,-1.88282" fill="#dc1e23" fill-rule="nonzero"/>
    <path d="m244.728464,73.44336l-23.75781,0c-1.03515,0 -2.01953,0.85157 -2.18359,1.88282l-5.52344,34.8789c-0.16406,1.03125 0.54297,1.94531 1.57422,1.94531l23.76172,0c1.03125,0 2.02734,-0.91406 2.1914,-1.94531l5.52344,-34.8789c0.16406,-1.03125 -0.55078,-1.88282 -1.58594,-1.88282" fill="#dc1e23" fill-rule="nonzero"/>
    <path d="m132.615184,73.44336l-34.8789,0c-1.03516,0 -2.01953,0.85157 -2.1836,1.88282l-15.41797,97.34765c-0.16406,1.03125 0.55469,1.88281 1.58594,1.88281l34.87891,0c1.03515,0 2.01953,-0.85156 2.18359,-1.88281l15.41797,-97.34765c0.16406,-1.03125 -0.55078,-1.88282 -1.58594,-1.88282" fill="#dc1e23" fill-rule="nonzero"/>
    <path d="m166.279254,73.44336l-23.75782,0c-1.03515,0 -2.01953,0.85157 -2.18359,1.88282l-5.52344,34.8789c-0.16406,1.03125 0.54297,1.94531 1.57422,1.94531l23.76172,0c1.03125,0 2.02734,-0.91406 2.19141,-1.94531l5.52343,-34.8789c0.16407,-1.03125 -0.55078,-1.88282 -1.58593,-1.88282" fill="#dc1e23" fill-rule="nonzero"/>
    <path d="m54.165964,73.44336l-34.8789,0c-1.03516,0 -2.01953,0.85157 -2.1836,1.88282l-15.41796,97.34765c-0.16407,1.03125 0.55468,1.88281 1.58593,1.88281l34.87891,0c1.03516,0 2.01953,-0.85156 2.18359,-1.88281l15.41797,-97.34765c0.16406,-1.03125 -0.55078,-1.88282 -1.58594,-1.88282" fill="#dc1e23" fill-rule="nonzero"/>
    <path d="m87.830034,73.44336l-23.75782,0c-1.03515,0 -2.01953,0.85157 -2.18359,1.88282l-5.52344,34.8789c-0.16406,1.03125 0.54297,1.94531 1.57422,1.94531l23.76172,0c1.03125,0 2.02734,-0.91406 2.19141,-1.94531l5.52343,-34.8789c0.16407,-1.03125 -0.55078,-1.88282 -1.58593,-1.88282" fill="#dc1e23" fill-rule="nonzero"/>
  </g>
</svg>
